<?xml version="1.0" encoding="UTF-8" standalone="no"?>
<!-- Created with Inkscape (http://www.inkscape.org/) -->

<svg
   width="960"
   height="960"
   viewBox="0 0 253.99999 253.99999"
   version="1.1"
   id="svg1"
   sodipodi:docname="mail.svg"
   inkscape:version="1.3.2 (091e20e, 2023-11-25)"
   xmlns:inkscape="http://www.inkscape.org/namespaces/inkscape"
   xmlns:sodipodi="http://sodipodi.sourceforge.net/DTD/sodipodi-0.dtd"
   xmlns="http://www.w3.org/2000/svg"
   xmlns:svg="http://www.w3.org/2000/svg">
  <sodipodi:namedview
     id="namedview1"
     pagecolor="#ffffff"
     bordercolor="#000000"
     borderopacity="0.25"
     inkscape:showpageshadow="2"
     inkscape:pageopacity="0.0"
     inkscape:pagecheckerboard="0"
     inkscape:deskcolor="#d1d1d1"
     inkscape:document-units="px"
     inkscape:zoom="0.70710678"
     inkscape:cx="580.53467"
     inkscape:cy="540.93669"
     inkscape:window-width="1920"
     inkscape:window-height="972"
     inkscape:window-x="0"
     inkscape:window-y="25"
     inkscape:window-maximized="0"
     inkscape:current-layer="layer1" />
  <defs
     id="defs1">
    <rect
       x="215.2963"
       y="318.20522"
       width="272.16701"
       height="269.45889"
       id="rect1" />
  </defs>
  <g
     inkscape:label="Layer 1"
     inkscape:groupmode="layer"
     id="layer1">
    <path
       id="path1"
       style="fill:#000000;stroke-width:0;stroke-dasharray:none;stroke:none"
       d="M 126.99999 0 A 126.99999 126.99999 0 0 0 0 126.99999 A 126.99999 126.99999 0 0 0 126.99999 253.99999 A 126.99999 126.99999 0 0 0 253.99999 126.99999 A 126.99999 126.99999 0 0 0 126.99999 0 z M 53.396222 74.353598 L 200.60377 74.353598 L 200.60377 179.64639 L 53.396222 179.64639 L 53.396222 74.353598 z M 65.936541 81.018824 L 127.28267 141.68695 L 188.06345 81.018824 L 65.936541 81.018824 z M 60.175136 86.55492 L 60.175136 167.55824 L 100.84604 127.11317 L 60.175136 86.55492 z M 193.82485 86.55492 L 153.15395 127.11317 L 193.82485 167.55824 L 193.82485 86.55492 z M 106.38213 132.42292 L 65.936541 173.09382 L 188.06345 173.09382 L 147.8442 132.42292 L 127.28267 152.98445 L 106.38213 132.42292 z " />
  </g>
</svg>
