<?xml version="1.0" encoding="UTF-8" standalone="no"?>
<!-- Created with Inkscape (http://www.inkscape.org/) -->

<svg
   width="960"
   height="960"
   viewBox="0 0 253.99999 253.99999"
   version="1.1"
   id="svg1"
   sodipodi:docname="phone.svg"
   inkscape:version="1.3.2 (091e20e, 2023-11-25)"
   xmlns:inkscape="http://www.inkscape.org/namespaces/inkscape"
   xmlns:sodipodi="http://sodipodi.sourceforge.net/DTD/sodipodi-0.dtd"
   xmlns="http://www.w3.org/2000/svg"
   xmlns:svg="http://www.w3.org/2000/svg">
  <sodipodi:namedview
     id="namedview1"
     pagecolor="#ffffff"
     bordercolor="#000000"
     borderopacity="0.25"
     inkscape:showpageshadow="2"
     inkscape:pageopacity="0.0"
     inkscape:pagecheckerboard="0"
     inkscape:deskcolor="#d1d1d1"
     inkscape:document-units="px"
     inkscape:zoom="0.70710678"
     inkscape:cx="631.44636"
     inkscape:cy="519.72349"
     inkscape:window-width="1920"
     inkscape:window-height="972"
     inkscape:window-x="0"
     inkscape:window-y="25"
     inkscape:window-maximized="0"
     inkscape:current-layer="layer1" />
  <defs
     id="defs1">
    <rect
       x="215.2963"
       y="318.20522"
       width="272.16701"
       height="269.45889"
       id="rect1" />
  </defs>
  <g
     inkscape:label="Layer 1"
     inkscape:groupmode="layer"
     id="layer1">
    <path
       id="path1"
       style="fill:#000000;stroke-width:0;stroke:none;stroke-dasharray:none"
       d="M 126.99999 0 A 126.99999 126.99999 0 0 0 0 126.99999 A 126.99999 126.99999 0 0 0 126.99999 253.99999 A 126.99999 126.99999 0 0 0 253.99999 126.99999 A 126.99999 126.99999 0 0 0 126.99999 0 z M 165.41832 60.626788 C 167.11064 60.626788 168.47446 61.194964 169.51006 62.331593 C 170.57091 63.442965 171.10118 65.148009 171.10118 67.446526 L 171.10118 107.87248 L 193.9096 107.87248 C 195.72821 107.87248 197.11749 108.31497 198.07731 109.19902 C 199.06239 110.08306 199.55474 111.19396 199.55474 112.53266 C 199.55474 113.89662 199.07485 115.00804 198.11503 115.86682 C 197.15521 116.70035 195.75347 117.11739 193.9096 117.11739 L 166.74434 117.11739 C 164.29427 117.11739 162.52586 116.57415 161.43975 115.48804 C 160.3789 114.40192 159.84863 112.6465 159.84863 110.22169 L 159.84863 67.446526 C 159.84863 65.173267 160.35397 63.468223 161.3643 62.331593 C 162.3999 61.194964 163.75126 60.626788 165.41832 60.626788 z M 60.12811 61.574017 L 95.894401 61.574017 C 97.839301 61.574017 99.278955 62.003523 100.21352 62.86231 C 101.17334 63.721097 101.65322 64.844983 101.65322 66.234197 C 101.65322 67.623412 101.17334 68.747298 100.21352 69.606084 C 99.253697 70.439613 97.814043 70.856654 95.894401 70.856654 L 83.618665 70.856654 L 83.618665 111.20664 C 83.618665 113.53042 83.100868 115.26091 82.065272 116.39754 C 81.029676 117.50891 79.690778 118.06462 78.04898 118.06462 C 76.381923 118.06462 75.018094 117.49645 73.95724 116.35982 C 72.921644 115.22319 72.403846 113.50516 72.403846 111.20664 L 72.403846 70.856654 L 60.12811 70.856654 C 58.208469 70.856654 56.78128 70.439613 55.846718 69.606084 C 54.912156 68.747298 54.445253 67.623412 54.445253 66.234197 C 54.445253 64.794466 54.925138 63.657598 55.884959 62.82407 C 56.870038 61.990541 58.284244 61.574017 60.12811 61.574017 z M 115.21674 61.574017 L 144.92086 61.574017 C 146.71421 61.574017 148.04013 61.978076 148.89892 62.786346 C 149.78296 63.569358 150.22493 64.604953 150.22493 65.893133 C 150.22493 67.206572 149.78296 68.267614 148.89892 69.075884 C 148.04013 69.858896 146.71421 70.25049 144.92086 70.25049 L 119.57409 70.25049 L 119.57409 83.889967 L 142.91272 83.889967 C 144.63029 83.889967 145.90583 84.28156 146.73936 85.064572 C 147.59814 85.822325 148.02765 86.832473 148.02765 88.095394 C 148.02765 89.358316 147.61113 90.393911 146.7776 91.202181 C 145.94407 91.985193 144.65555 92.376787 142.91272 92.376787 L 119.57409 92.376787 L 119.57409 108.17582 L 145.79213 108.17582 C 147.56022 108.17582 148.88665 108.59235 149.7707 109.42587 C 150.68 110.23414 151.13444 111.32063 151.13444 112.68459 C 151.13444 113.99803 150.68 115.07154 149.7707 115.90507 C 148.88665 116.71334 147.56022 117.11739 145.79213 117.11739 L 115.21674 117.11739 C 112.76667 117.11739 110.99878 116.57415 109.91267 115.48804 C 108.85181 114.40192 108.32155 112.6465 108.32155 110.22169 L 108.32155 68.46972 C 108.32155 66.85318 108.56149 65.53973 109.0414 64.529392 C 109.52131 63.493796 110.26607 62.748522 111.27641 62.29387 C 112.312 61.813959 113.62545 61.574017 115.21674 61.574017 z " />
  </g>
</svg>
