<?xml version="1.0" encoding="UTF-8" standalone="no"?>
<!-- Created with Inkscape (http://www.inkscape.org/) -->

<svg
   width="960"
   height="960"
   viewBox="0 0 253.99999 253.99999"
   version="1.1"
   id="svg1"
   sodipodi:docname="reddit.svg"
   inkscape:version="1.3.2 (091e20e, 2023-11-25)"
   xmlns:inkscape="http://www.inkscape.org/namespaces/inkscape"
   xmlns:sodipodi="http://sodipodi.sourceforge.net/DTD/sodipodi-0.dtd"
   xmlns="http://www.w3.org/2000/svg"
   xmlns:svg="http://www.w3.org/2000/svg">
  <sodipodi:namedview
     id="namedview1"
     pagecolor="#ffffff"
     bordercolor="#000000"
     borderopacity="0.25"
     inkscape:showpageshadow="2"
     inkscape:pageopacity="0.0"
     inkscape:pagecheckerboard="0"
     inkscape:deskcolor="#d1d1d1"
     inkscape:document-units="px"
     inkscape:zoom="0.70710678"
     inkscape:cx="504.16714"
     inkscape:cy="573.4636"
     inkscape:window-width="1920"
     inkscape:window-height="972"
     inkscape:window-x="0"
     inkscape:window-y="25"
     inkscape:window-maximized="0"
     inkscape:current-layer="layer1" />
  <defs
     id="defs1">
    <rect
       x="215.2963"
       y="318.20522"
       width="272.16701"
       height="269.45889"
       id="rect1" />
  </defs>
  <g
     inkscape:label="Layer 1"
     inkscape:groupmode="layer"
     id="layer1">
    <path
       id="path1"
       style="fill:#000000;stroke-width:0;stroke-dasharray:none;stroke:none"
       d="M 126.99999 0 A 126.99999 126.99999 0 0 0 0 126.99999 A 126.99999 126.99999 0 0 0 126.99999 253.99999 A 126.99999 126.99999 0 0 0 253.99999 126.99999 A 126.99999 126.99999 0 0 0 126.99999 0 z M 91.49622 59.197418 L 136.17359 59.197418 C 142.34026 59.197418 147.6129 59.474926 151.99123 60.029925 C 156.36956 60.523258 160.31634 61.571621 163.83134 63.174953 C 168.08633 64.963284 171.84759 67.522523 175.11592 70.85252 C 178.38425 74.182517 180.85099 78.067626 182.51598 82.507622 C 184.24265 86.885951 185.10601 91.541916 185.10601 96.475244 C 185.10601 106.58857 182.23843 114.66661 176.50343 120.70994 C 170.8301 126.75327 162.19704 131.03922 150.60372 133.56755 C 155.47538 136.15755 160.13135 139.98099 164.57134 145.03765 C 169.01134 150.09431 172.9576 155.48978 176.41093 161.22478 C 179.92593 166.89811 182.63934 172.04742 184.551 176.67241 C 186.52433 181.23574 187.51103 184.38083 187.51103 186.1075 C 187.51103 187.89583 186.92518 189.68421 185.75351 191.47254 C 184.64351 193.19921 183.1018 194.55591 181.12847 195.54258 C 179.15514 196.59091 176.87341 197.11509 174.28341 197.11509 C 171.20008 197.11509 168.61001 196.37507 166.51334 194.89507 C 164.41668 193.47674 162.59798 191.65752 161.05631 189.43753 C 159.57631 187.21753 157.54126 183.9491 154.95126 179.63244 L 143.94366 161.31728 C 139.997 154.59562 136.45107 149.47766 133.30607 145.96266 C 130.22274 142.44766 127.07765 140.0426 123.87099 138.7476 C 120.66432 137.4526 116.62504 136.80508 111.75338 136.80508 L 102.13381 136.80508 L 102.13381 180.37245 C 102.13381 186.10744 100.86961 190.33173 98.34128 193.04506 C 95.812949 195.75839 92.51369 197.11509 88.443694 197.11509 C 84.065365 197.11509 80.673602 195.69672 78.268605 192.86006 C 75.863607 190.02339 74.661073 185.86077 74.661073 180.37245 L 74.661073 76.032565 C 74.661073 70.112571 75.986944 65.826617 78.638608 63.174953 C 81.290272 60.523289 85.576226 59.197418 91.49622 59.197418 z M 102.13381 79.825099 L 102.13381 117.10241 L 126.73851 117.10241 C 133.33684 117.10241 138.887 116.54739 143.38866 115.43739 C 147.89032 114.26573 151.31292 112.32317 153.65625 109.60984 C 156.06125 106.83485 157.26378 103.04224 157.26378 98.232243 C 157.26378 94.47058 156.30792 91.171837 154.39625 88.335173 C 152.48459 85.436843 149.83285 83.278448 146.44118 81.860116 C 143.23452 80.503451 136.91351 79.825099 127.47852 79.825099 L 102.13381 79.825099 z " />
  </g>
</svg>
