<?xml version="1.0" encoding="UTF-8" standalone="no"?>
<!-- Created with Inkscape (http://www.inkscape.org/) -->

<svg
   width="960"
   height="960"
   viewBox="0 0 253.99999 253.99999"
   version="1.1"
   id="svg1"
   sodipodi:docname="twitter.svg"
   inkscape:version="1.3.2 (091e20e, 2023-11-25)"
   xmlns:inkscape="http://www.inkscape.org/namespaces/inkscape"
   xmlns:sodipodi="http://sodipodi.sourceforge.net/DTD/sodipodi-0.dtd"
   xmlns="http://www.w3.org/2000/svg"
   xmlns:svg="http://www.w3.org/2000/svg">
  <sodipodi:namedview
     id="namedview1"
     pagecolor="#ffffff"
     bordercolor="#000000"
     borderopacity="0.25"
     inkscape:showpageshadow="2"
     inkscape:pageopacity="0.0"
     inkscape:pagecheckerboard="0"
     inkscape:deskcolor="#d1d1d1"
     inkscape:document-units="px"
     inkscape:zoom="0.70710678"
     inkscape:cx="504.16714"
     inkscape:cy="573.4636"
     inkscape:window-width="1920"
     inkscape:window-height="972"
     inkscape:window-x="0"
     inkscape:window-y="25"
     inkscape:window-maximized="0"
     inkscape:current-layer="layer1" />
  <defs
     id="defs1">
    <rect
       x="215.2963"
       y="318.20522"
       width="272.16701"
       height="269.45889"
       id="rect1" />
  </defs>
  <g
     inkscape:label="Layer 1"
     inkscape:groupmode="layer"
     id="layer1">
    <path
       id="path1"
       style="fill:#000000;stroke-width:0;stroke-dasharray:none;stroke:none"
       d="M 126.99999 0 A 126.99999 126.99999 0 0 0 0 126.99999 A 126.99999 126.99999 0 0 0 126.99999 253.99999 A 126.99999 126.99999 0 0 0 253.99999 126.99999 A 126.99999 126.99999 0 0 0 126.99999 0 z M 83.247629 64.776405 L 170.56736 64.776405 C 175.31569 64.776405 178.83079 65.824768 181.11245 67.921433 C 183.45578 70.018097 184.62748 72.762342 184.62748 76.154005 C 184.62748 79.545668 183.45578 82.289912 181.11245 84.386577 C 178.76912 86.421575 175.25402 87.439104 170.56736 87.439104 L 140.59761 87.439104 L 140.59761 185.95143 C 140.59761 191.62476 139.33341 195.84905 136.80508 198.62404 C 134.27675 201.33737 131.00832 202.69408 126.99999 202.69408 C 122.93 202.69408 119.5999 201.30654 117.00991 198.53154 C 114.48158 195.75655 113.21737 191.56309 113.21737 185.95143 L 113.21737 87.439104 L 83.247629 87.439104 C 78.560967 87.439104 75.076701 86.421575 72.795037 84.386577 C 70.513373 82.289912 69.372507 79.545668 69.372507 76.154005 C 69.372507 72.639008 70.544207 69.86393 72.887538 67.828932 C 75.292535 65.793934 78.745966 64.776405 83.247629 64.776405 z " />
  </g>
</svg>
