<?xml version="1.0" encoding="UTF-8" standalone="no"?>
<!-- Created with Inkscape (http://www.inkscape.org/) -->

<svg
   width="960"
   height="960"
   viewBox="0 0 253.99999 253.99999"
   version="1.1"
   id="svg1"
   sodipodi:docname="reddit.svg"
   inkscape:version="1.3.2 (091e20e, 2023-11-25)"
   xmlns:inkscape="http://www.inkscape.org/namespaces/inkscape"
   xmlns:sodipodi="http://sodipodi.sourceforge.net/DTD/sodipodi-0.dtd"
   xmlns="http://www.w3.org/2000/svg"
   xmlns:svg="http://www.w3.org/2000/svg">
  <sodipodi:namedview
     id="namedview1"
     pagecolor="#ffffff"
     bordercolor="#000000"
     borderopacity="0.25"
     inkscape:showpageshadow="2"
     inkscape:pageopacity="0.0"
     inkscape:pagecheckerboard="0"
     inkscape:deskcolor="#d1d1d1"
     inkscape:document-units="px"
     inkscape:zoom="0.73851712"
     inkscape:cx="504.38912"
     inkscape:cy="493.5566"
     inkscape:window-width="1920"
     inkscape:window-height="972"
     inkscape:window-x="0"
     inkscape:window-y="25"
     inkscape:window-maximized="0"
     inkscape:current-layer="g8" />
  <defs
     id="defs1" />
  <g
     inkscape:label="Layer 1"
     inkscape:groupmode="layer"
     id="layer1">
    <rect
       style="fill:#ff5d5d;stroke-width:0.410492;fill-opacity:1"
       id="rect2"
       width="230.35463"
       height="230.35463"
       x="11.822678"
       y="11.822678"
       ry="76.784882" />
    <path
       id="path3"
       style="fill:#ffb2b2;stroke:#ff0300;stroke-width:11.50011413;stroke-dasharray:none"
       d="m 149.7005,247.97189 c -12.73298,12.73299 -33.37722,12.73299 -46.1102,0 -12.732989,-12.73298 -5.62961,-27.91309 7.10337,-40.64607 12.73298,-12.73298 21.90254,-12.45977 34.63552,0.27321 12.73299,12.73298 17.10429,27.63988 4.37131,40.37286 z"
       sodipodi:nodetypes="sssss" />
    <path
       id="path2"
       style="fill:#ffb2b2;stroke:#ff0300;stroke-width:11.50011413;stroke-dasharray:none"
       d="m 190.53905,162.07797 c 0,29.35129 -28.88925,42.03905 -64.96788,42.03905 -36.078624,0 -65.684391,-12.68777 -65.68439,-42.03905 10e-7,-29.35128 30.322294,-57.08608 66.40092,-57.08608 36.07863,-1e-5 64.25135,27.7348 64.25135,57.08608 z"
       sodipodi:nodetypes="sssss" />
    <path
       id="rect1"
       style="display:inline;fill:#ff0300;fill-opacity:1;stroke-width:0.452628"
       d="M 84.666663 0 C 37.761378 0 0 37.761378 0 84.666663 L 0 169.33333 C 0 216.23861 37.761378 253.99999 84.666663 253.99999 L 169.33333 253.99999 C 216.23861 253.99999 253.99999 216.23861 253.99999 169.33333 L 253.99999 84.666663 C 253.99999 37.761378 216.23861 0 169.33333 0 L 84.666663 0 z M 88.607508 11.822534 L 165.39248 11.822534 C 207.93126 11.822534 242.17746 46.068726 242.17746 88.607508 L 242.17746 165.39248 C 242.17746 207.93126 207.93126 242.17746 165.39248 242.17746 L 88.607508 242.17746 C 46.068726 242.17746 11.822534 207.93126 11.822534 165.39248 L 11.822534 88.607508 C 11.822534 46.068726 46.068726 11.822534 88.607508 11.822534 z " />
    <path
       id="rect5"
       style="fill:#ffb2b2;fill-opacity:1;stroke:#ff0300;stroke-width:12.9757;stroke-linejoin:round;stroke-dasharray:none;stroke-opacity:1"
       d="M 112.3213 36.922293 L 112.3213 68.048557 L 143.44757 68.048557 L 143.44757 52.61074 A 16.659227 16.659227 0 0 1 127.60719 36.922293 L 112.3213 36.922293 z " />
    <path
       style="fill:#ffb2b2;fill-opacity:0.00557101;stroke:#ff0300;stroke-width:9.06594756;stroke-linejoin:round;stroke-dasharray:none;stroke-opacity:1"
       d="m 134.51192,67.740246 c 0,0 1.89934,14.60931 -9.56507,16.400624 -11.46442,1.791317 -9.58618,20.11365 -9.58618,20.11365"
       id="path5"
       sodipodi:nodetypes="csc" />
    <g
       id="g8"
       inkscape:label="Face"
       transform="translate(2.5078407)">
      <path
         style="fill:#ffb2b2;fill-opacity:0;stroke:#ff0300;stroke-width:9.06595;stroke-linecap:round;stroke-linejoin:round;stroke-dasharray:none;stroke-opacity:1"
         d="m 137.67394,146.88781 v 12.71834"
         id="path8" />
      <path
         style="fill:#ffb2b2;fill-opacity:0;stroke:#ff0300;stroke-width:9.06595;stroke-linecap:round;stroke-linejoin:round;stroke-dasharray:none;stroke-opacity:1"
         d="m 93.685758,166.23401 c 0,0 25.794932,23.28709 59.650792,0.17913"
         id="path9"
         sodipodi:nodetypes="cc" />
      <path
         style="fill:#ffb2b2;fill-opacity:0;stroke:#ff0300;stroke-width:9.06595;stroke-linecap:round;stroke-linejoin:round;stroke-dasharray:none;stroke-opacity:1"
         d="m 108.91194,146.88781 v 12.71834"
         id="path7" />
    </g>
    <circle
       style="fill:#ff5d5d;fill-opacity:1;stroke:#ff0300;stroke-width:0;stroke-linecap:round;stroke-linejoin:round;stroke-dasharray:none;stroke-opacity:0"
       id="path10"
       cx="82.042221"
       cy="165.87575"
       r="7.5235219" />
    <circle
       style="fill:#ff5d5d;fill-opacity:1;stroke:#ff0300;stroke-width:0;stroke-linecap:round;stroke-linejoin:round;stroke-dasharray:none;stroke-opacity:0"
       id="circle10"
       cx="170.89143"
       cy="165.87575"
       r="7.5235219" />
  </g>
</svg>
