<?xml version="1.0" encoding="UTF-8" standalone="no"?>
<!-- Created with Inkscape (http://www.inkscape.org/) -->

<svg
   width="960"
   height="960"
   viewBox="0 0 253.99999 253.99999"
   version="1.1"
   id="svg1"
   sodipodi:docname="reddit copy 2.svg"
   inkscape:version="1.3.2 (091e20e, 2023-11-25)"
   xmlns:inkscape="http://www.inkscape.org/namespaces/inkscape"
   xmlns:sodipodi="http://sodipodi.sourceforge.net/DTD/sodipodi-0.dtd"
   xmlns="http://www.w3.org/2000/svg"
   xmlns:svg="http://www.w3.org/2000/svg">
  <sodipodi:namedview
     id="namedview1"
     pagecolor="#ffffff"
     bordercolor="#000000"
     borderopacity="0.25"
     inkscape:showpageshadow="2"
     inkscape:pageopacity="0.0"
     inkscape:pagecheckerboard="0"
     inkscape:deskcolor="#d1d1d1"
     inkscape:document-units="px"
     inkscape:zoom="0.834375"
     inkscape:cx="479.40075"
     inkscape:cy="384.11985"
     inkscape:window-width="1920"
     inkscape:window-height="972"
     inkscape:window-x="0"
     inkscape:window-y="25"
     inkscape:window-maximized="0"
     inkscape:current-layer="layer1" />
  <defs
     id="defs1" />
  <g
     inkscape:label="Layer 1"
     inkscape:groupmode="layer"
     id="layer1">
    <rect
       style="fill:#87d487;stroke-width:0.17842035;fill-opacity:1;stroke-dasharray:none"
       id="rect2"
       width="230.35463"
       height="230.35463"
       x="11.822678"
       y="11.822678"
       ry="76.784882" />
    <path
       id="rect1"
       style="display:inline;fill:#0eb210;fill-opacity:1;stroke-width:0.19673476;stroke-dasharray:none"
       d="M 84.666663 0 C 37.761378 0 0 37.761378 0 84.666663 L 0 169.33333 C 0 216.23861 37.761378 253.99999 84.666663 253.99999 L 169.33333 253.99999 C 216.23861 253.99999 253.99999 216.23861 253.99999 169.33333 L 253.99999 84.666663 C 253.99999 37.761378 216.23861 0 169.33333 0 L 84.666663 0 z M 88.607508 11.822534 L 165.39248 11.822534 C 207.93126 11.822534 242.17746 46.068726 242.17746 88.607508 L 242.17746 165.39248 C 242.17746 207.93126 207.93126 242.17746 165.39248 242.17746 L 88.607508 242.17746 C 46.068726 242.17746 11.822534 207.93126 11.822534 165.39248 L 11.822534 88.607508 C 11.822534 46.068726 46.068726 11.822534 88.607508 11.822534 z " />
    <path
       id="path2"
       style="fill:#aadab2;stroke-width:11.50011413;stroke-dasharray:none;stroke:#0eb210;stroke-opacity:1;fill-opacity:1;stroke-linejoin:round"
       d="M 126.99999 47.823952 A 79.176109 79.176109 0 0 0 47.823952 126.99999 A 79.176109 79.176109 0 0 0 61.319769 171.04382 L 50.998435 203.00155 L 82.956173 192.68022 A 79.176109 79.176109 0 0 0 126.99999 206.17604 A 79.176109 79.176109 0 0 0 206.17604 126.99999 A 79.176109 79.176109 0 0 0 126.99999 47.823952 z " />
    <g
       transform="matrix(0.06568955,0,0,-0.06568955,80.754322,176.73358)"
       id="g3015"
       style="fill:#0eb210;fill-opacity:1">
      <path
         d="m 1408,296 q 0,-27 -10,-70.5 Q 1388,182 1377,157 1356,107 1255,51 1161,0 1069,0 1042,0 1016.5,3.5 991,7 959,16 927,25 911.5,30.5 896,36 856,51 816,66 807,69 709,104 632,152 504,231 367.5,367.5 231,504 152,632 104,709 69,807 66,816 51,856 36,896 30.5,911.5 25,927 16,959 7,991 3.5,1016.5 0,1042 0,1069 q 0,92 51,186 56,101 106,122 25,11 68.5,21 43.5,10 70.5,10 14,0 21,-3 18,-6 53,-76 11,-19 30,-54 19,-35 35,-63.5 16,-28.5 31,-53.5 3,-4 17.5,-25 14.5,-21 21.5,-35.5 7,-14.5 7,-28.5 0,-20 -28.5,-50 -28.5,-30 -62,-55 -33.5,-25 -62,-53 -28.5,-28 -28.5,-46 0,-9 5,-22.5 5,-13.5 8.5,-20.5 3.5,-7 14,-24 10.5,-17 11.5,-19 76,-137 174,-235 98,-98 235,-174 2,-1 19,-11.5 17,-10.5 24,-14 7,-3.5 20.5,-8.5 13.5,-5 22.5,-5 18,0 46,28.5 28,28.5 53,62 25,33.5 55,62 30,28.5 50,28.5 14,0 28.5,-7 14.5,-7 35.5,-21.5 21,-14.5 25,-17.5 25,-15 53.5,-31 28.5,-16 63.5,-35 35,-19 54,-30 70,-35 76,-53 3,-7 3,-21 z"
         id="path3017"
         inkscape:connector-curvature="0"
         style="fill:#0eb210;fill-opacity:1" />
    </g>
  </g>
</svg>
